<svg xmlns="http://www.w3.org/2000/svg" viewBox="0 0 1254 1254" role="img" aria-labelledby="title desc">
  <title id="title">Smart Mental Health Chatbot</title>
  <desc id="desc">A friendly AI chatbot with a brain, heart, mood tracking, sentiment analysis, counselling support, and safety icons.</desc>
  <defs>
    <linearGradient id="brainLeft" x1="330" y1="145" x2="626" y2="520" gradientUnits="userSpaceOnUse">
      <stop offset="0" stop-color="#75a7ed"/>
      <stop offset="1" stop-color="#3f82de"/>
    </linearGradient>
    <linearGradient id="brainRight" x1="628" y1="145" x2="932" y2="520" gradientUnits="userSpaceOnUse">
      <stop offset="0" stop-color="#9ad69d"/>
      <stop offset="1" stop-color="#38bea6"/>
    </linearGradient>
    <linearGradient id="tealBlue" x1="200" y1="340" x2="1008" y2="650" gradientUnits="userSpaceOnUse">
      <stop offset="0" stop-color="#39c4c5"/>
      <stop offset="0.55" stop-color="#4d91e8"/>
      <stop offset="1" stop-color="#38c8a6"/>
    </linearGradient>
    <linearGradient id="wordMental" x1="210" y1="758" x2="1035" y2="840" gradientUnits="userSpaceOnUse">
      <stop offset="0" stop-color="#24bdb9"/>
      <stop offset="0.48" stop-color="#2bb9bf"/>
      <stop offset="1" stop-color="#5b8be8"/>
    </linearGradient>
    <linearGradient id="heartGrad" x1="700" y1="210" x2="855" y2="370" gradientUnits="userSpaceOnUse">
      <stop offset="0" stop-color="#ffc199"/>
      <stop offset="1" stop-color="#ee7f82"/>
    </linearGradient>
    <filter id="shadow" x="-20%" y="-20%" width="140%" height="140%">
      <feDropShadow dx="0" dy="15" stdDeviation="14" flood-color="#0d2d63" flood-opacity="0.16"/>
    </filter>
    <filter id="smallShadow" x="-25%" y="-25%" width="150%" height="150%">
      <feDropShadow dx="0" dy="8" stdDeviation="8" flood-color="#0d2d63" flood-opacity="0.12"/>
    </filter>
  </defs>

  <rect width="1254" height="1254" fill="none"/>

  <g filter="url(#shadow)">
    <path d="M312 492C240 417 248 294 334 229c34-26 75-38 116-35 33-63 105-97 176-79v378H312Z" fill="url(#brainLeft)"/>
    <path d="M628 115c69-20 144 12 180 72 58-7 118 17 154 66 48 66 43 156-12 216-32 35-77 55-124 55H628V115Z" fill="url(#brainRight)"/>

    <g fill="none" stroke="#ffffff" stroke-width="9" stroke-linecap="round" stroke-linejoin="round">
      <path d="M388 278h48v85l42 42"/>
      <path d="M466 242v84l58 58"/>
      <path d="M538 220v76l65 65"/>
      <path d="M338 392h93l38 38"/>
      <path d="M388 458h72"/>
      <circle cx="388" cy="278" r="12"/>
      <circle cx="466" cy="242" r="12"/>
      <circle cx="538" cy="220" r="12"/>
      <circle cx="338" cy="392" r="12"/>
      <circle cx="388" cy="458" r="12"/>
      <path d="M699 205c-38 28-61 67-69 118"/>
      <path d="M746 160c44 14 71 43 80 88 42-5 79 12 111 50"/>
      <path d="M866 347c-2 37-17 68-46 92"/>
    </g>

    <path d="M742 258c-7-34 19-65 54-65 17 0 32 8 42 21 10-13 25-21 42-21 35 0 61 31 54 65-6 28-43 59-82 92-8 7-21 7-29 0-39-33-75-64-81-92Z" fill="url(#heartGrad)" stroke="#ffffff" stroke-width="12"/>

    <path d="M249 449c53 136 194 210 379 210 174 0 311-61 394-181" fill="none" stroke="url(#tealBlue)" stroke-width="12" stroke-linecap="round"/>
    <path d="M942 498c34-50 78-77 133-80-12 65-51 106-117 121" fill="#42bda5"/>
    <path d="M922 545c35-36 77-51 126-44-28 48-68 71-120 68" fill="#52cab3"/>
    <path d="M1007 446c-25 37-45 73-60 109" fill="none" stroke="#ffffff" stroke-width="6" stroke-linecap="round" opacity="0.8"/>
    <path d="M968 536c-27 9-53 21-78 37" fill="none" stroke="#ffffff" stroke-width="6" stroke-linecap="round" opacity="0.7"/>

    <g>
      <circle cx="626" cy="269" r="31" fill="#22bfb3" stroke="#ffffff" stroke-width="10"/>
      <path d="M453 318c0-56 45-101 101-101h148c56 0 101 45 101 101v90c0 56-45 101-101 101H606l-83 71v-76c-41-13-70-51-70-96v-90Z" fill="#ffffff" stroke="#205581" stroke-width="8"/>
      <rect x="503" y="283" width="250" height="154" rx="69" fill="#0e3157"/>
      <circle cx="457" cy="374" r="43" fill="#36c7b6"/>
      <circle cx="799" cy="374" r="43" fill="#36c7b6"/>
      <path d="M543 361c11-31 54-31 65 0M653 361c11-31 54-31 65 0" fill="none" stroke="#44d0bd" stroke-width="13" stroke-linecap="round"/>
      <path d="M596 407c22 22 48 22 70 0" fill="none" stroke="#44d0bd" stroke-width="13" stroke-linecap="round"/>
    </g>
  </g>

  <g text-anchor="middle" font-family="Inter, Segoe UI, Arial, sans-serif">
    <text x="627" y="743" fill="#0e3157" font-size="92" font-weight="900">Smart</text>
    <text x="627" y="842" fill="url(#wordMental)" font-size="92" font-weight="900">Mental Health</text>
    <path d="M361 903h158M735 903h158" stroke="#2ebeb9" stroke-width="7" stroke-linecap="round"/>
    <text x="627" y="925" fill="#0e3157" font-size="56" font-weight="800" letter-spacing="18">Chatbot</text>
    <text x="627" y="986" fill="#5c6b83" font-size="25" font-weight="700" letter-spacing="12">YOUR WELLBEING. OUR PRIORITY.</text>
  </g>

  <g filter="url(#smallShadow)" font-family="Inter, Segoe UI, Arial, sans-serif" text-anchor="middle">
    <g transform="translate(155 1030)">
      <circle cx="50" cy="38" r="36" fill="#38b8d2"/>
      <path d="M27 35h46M29 63c14 12 31 12 44 0" fill="none" stroke="#ffffff" stroke-width="8" stroke-linecap="round"/>
      <text x="50" y="116" fill="#0e3157" font-size="21" font-weight="800">AI CHAT</text>
    </g>
    <line x1="302" y1="1025" x2="302" y2="1145" stroke="#d6dde7" stroke-width="3"/>

    <g transform="translate(330 1030)">
      <circle cx="50" cy="38" r="40" fill="#70cfa2"/>
      <path d="M30 32c8 12 18 12 26 0M64 32c8 12 18 12 26 0M33 63c16 18 46 18 62 0" fill="none" stroke="#ffffff" stroke-width="7" stroke-linecap="round"/>
      <text x="50" y="116" fill="#0e3157" font-size="21" font-weight="800">MOOD TRACKING</text>
    </g>
    <line x1="512" y1="1025" x2="512" y2="1145" stroke="#d6dde7" stroke-width="3"/>

    <g transform="translate(558 1030)">
      <circle cx="50" cy="38" r="40" fill="#ffa27e"/>
      <path d="M30 35c-4-21 13-37 32-27 19-10 36 6 32 27-4 20-31 37-32 38-2-1-29-18-32-38Z" fill="#ffffff"/>
      <text x="50" y="116" fill="#0e3157" font-size="21" font-weight="800">SENTIMENT</text>
      <text x="50" y="143" fill="#0e3157" font-size="21" font-weight="800">ANALYSIS</text>
    </g>
    <line x1="707" y1="1025" x2="707" y2="1145" stroke="#d6dde7" stroke-width="3"/>

    <g transform="translate(763 1030)">
      <path d="M21 65c7-41 28-51 48-26 20-25 41-15 48 26" fill="none" stroke="#6d93df" stroke-width="12" stroke-linecap="round"/>
      <path d="M54 17c0 25 30 25 30 0" fill="none" stroke="#6d93df" stroke-width="10" stroke-linecap="round"/>
      <path d="M48 52c12 18 30 18 42 0" fill="none" stroke="#6d93df" stroke-width="9" stroke-linecap="round"/>
      <text x="69" y="116" fill="#0e3157" font-size="21" font-weight="800">COUNSELLING</text>
      <text x="69" y="143" fill="#0e3157" font-size="21" font-weight="800">SUPPORT</text>
    </g>
    <line x1="928" y1="1025" x2="928" y2="1145" stroke="#d6dde7" stroke-width="3"/>

    <g transform="translate(976 1030)">
      <path d="M50 0l48 19v38c0 45-31 72-48 80C33 129 2 102 2 57V19L50 0Z" fill="#55c59d"/>
      <path d="M30 59l15 16 28-38" fill="none" stroke="#ffffff" stroke-width="10" stroke-linecap="round" stroke-linejoin="round"/>
      <text x="50" y="116" fill="#0e3157" font-size="21" font-weight="800">SAFE &amp;</text>
      <text x="50" y="143" fill="#0e3157" font-size="21" font-weight="800">CONFIDENTIAL</text>
    </g>
  </g>
</svg>
